<svg xmlns="http://www.w3.org/2000/svg" width="48" height="48" viewBox="0 0 48 48">
    <g fill="none" stroke-width="3">
        <path fill="#8fbffa"
            d="M21.318 8.059c.116-2.455 1.82-4.457 4.264-4.713C27.387 3.156 29.837 3 33 3c3.165 0 5.614.156 7.418.346c2.444.256 4.149 2.258 4.265 4.713C44.836 11.273 45 16.483 45 24s-.164 12.727-.317 15.941c-.116 2.455-1.82 4.457-4.265 4.713c-1.804.19-4.253.346-7.418.346q-1.818-.002-3.327-.062a3 3 0 0 0-.01-.196c-.055-.625.23-1.74 2.118-2.761c1.035-.56 2.383-1.292 3.438-2.36c1.201-1.218 1.945-2.767 2.063-4.741c.115-1.914.218-4.774.218-8.88s-.103-6.966-.218-8.88c-.241-4.025-3.393-7.123-7.379-7.353c-1.854-.108-4.63-.214-8.65-.252q.033-.787.065-1.456" />
        <path fill="#ffc58e"
            d="M37.33 18h7.634a292 292 0 0 0-.28-9.941c-.116-2.455-1.82-4.457-4.265-4.713C38.615 3.156 36.166 3 33.001 3s-5.613.156-7.417.346c-2.444.256-4.149 2.258-4.265 4.713q-.032.669-.064 1.456c4.018.038 6.794.144 8.648.252c3.986.23 7.138 3.329 7.379 7.353q.025.41.048.88" />
        <path stroke="#2856c5" stroke-linecap="round" stroke-linejoin="round"
            d="m21.273 9l.043-.941c.116-2.455 1.82-4.457 4.265-4.713C27.385 3.156 29.834 3 32.999 3s5.613.156 7.417.346c2.444.256 4.149 2.258 4.265 4.713C44.834 11.273 45 16.483 45 24s-.165 12.727-.318 15.941c-.116 2.455-1.82 4.457-4.264 4.713c-1.805.19-4.254.346-7.418.346q-1.052 0-1.999-.022" />
        <path fill="#8fbffa"
            d="M14.78 37.985a340 340 0 0 0 6.44 0l.385 3.457A4 4 0 0 0 25.58 45H10.42a4 4 0 0 0 3.975-3.558z" />
        <path fill="#ffc58e"
            d="M32.79 17.39c-.104-1.729-1.419-3.031-3.147-3.131C27.43 14.131 23.76 14 18 14s-9.431.131-11.643.259c-1.728.1-3.043 1.402-3.147 3.13C3.101 19.2 3 21.969 3 26s.101 6.802.21 8.61c.104 1.729 1.419 3.031 3.147 3.131C8.57 37.869 12.24 38 18 38s9.431-.131 11.643-.259c1.728-.1 3.043-1.402 3.147-3.13c.108-1.81.21-4.579.21-8.611s-.102-6.802-.21-8.61" />
        <path fill="#8fbffa"
            d="M3.087 32c.035 1.032.076 1.896.12 2.61c.103 1.729 1.418 3.031 3.147 3.131c2.21.128 5.882.259 11.642.259s9.432-.131 11.643-.259c1.729-.1 3.044-1.402 3.147-3.13c.043-.715.085-1.579.12-2.611H3.086Z" />
        <path stroke="#2856c5" stroke-linecap="round" stroke-linejoin="round"
            d="M44.5 18H38m0-9h-1m-9 0h1M14.78 37.985l-.385 3.457A4 4 0 0 1 10.42 45m10.8-7.015l.385 3.457A4 4 0 0 0 25.58 45m0 0H10.42m15.16 0H26m-15.58 0H10" />
        <path stroke="#2856c5" stroke-linecap="round" stroke-linejoin="round"
            d="M32.79 17.39c-.104-1.729-1.419-3.031-3.147-3.131C27.43 14.131 23.76 14 18 14s-9.431.131-11.643.259c-1.728.1-3.043 1.402-3.147 3.13C3.101 19.2 3 21.969 3 26s.101 6.802.21 8.61c.104 1.729 1.419 3.031 3.147 3.131C8.57 37.869 12.24 38 18 38s9.431-.131 11.643-.259c1.728-.1 3.043-1.402 3.147-3.13c.108-1.81.21-4.579.21-8.611s-.102-6.802-.21-8.61M3.087 32h29.819" />
    </g>
</svg>