<svg xmlns="http://www.w3.org/2000/svg" width="48" height="48" viewBox="0 0 48 48">
    <g fill="none" fill-rule="evenodd" clip-rule="evenodd">
        <path fill="#ffe954"
            d="M20.803 2.723a4.93 4.93 0 0 1 6.393 0c1.045.878 2.442 2.097 4.192 3.719c2.256.089 4.018.21 5.327.323a4.93 4.93 0 0 1 4.52 4.52c.114 1.309.234 3.071.323 5.327c1.622 1.75 2.84 3.147 3.719 4.192a4.93 4.93 0 0 1 0 6.393a116 116 0 0 1-3.719 4.19a114 114 0 0 1-.323 5.328a4.93 4.93 0 0 1-4.52 4.52a114 114 0 0 1-5.327.323a116 116 0 0 1-4.192 3.719a4.93 4.93 0 0 1-6.393 0a116 116 0 0 1-4.19-3.719a114 114 0 0 1-5.328-.323a4.93 4.93 0 0 1-4.52-4.52a114 114 0 0 1-.323-5.327a116 116 0 0 1-3.719-4.192a4.93 4.93 0 0 1 0-6.393a116 116 0 0 1 3.719-4.19c.089-2.257.21-4.02.323-5.328a4.93 4.93 0 0 1 4.52-4.52c1.309-.114 3.071-.234 5.327-.323c1.75-1.622 3.147-2.84 4.192-3.719Z" />
        <path fill="#ffdc4d"
            d="M24 34c5.522 0 10-4.477 10-10s-4.478-10-10-10s-10 4.477-10 10s4.477 10 10 10" />
    </g>
</svg>