<?xml version="1.0" encoding="UTF-8" standalone="no"?><!DOCTYPE svg PUBLIC "-//W3C//DTD SVG 1.1//EN" "http://www.w3.org/Graphics/SVG/1.1/DTD/svg11.dtd"><svg width="1080px" height="1080px" version="1.1" xmlns="http://www.w3.org/2000/svg" xmlns:xlink="http://www.w3.org/1999/xlink" xml:space="preserve" xmlns:serif="http://www.serif.com/" style="fill-rule:evenodd;clip-rule:evenodd;stroke-linejoin:round;stroke-miterlimit:2;"><g transform="matrix(2,0,0,2,540,540)"><g id="favicon.svg" transform="matrix(1,0,0,1,-400,-300)"><g transform="matrix(16.0145,0,0,16.0145,142.308,44.8755)"><path d="M29.2,2.95C28.253,2.003 26.5,1.952 25.382,2.525C24.469,2.839 23.508,3.192 22.528,3.588L22.538,3.598C19.963,4.693 16.111,6.638 13.028,9.5C10.864,11.51 9.624,13.056 8.793,14.465L3.495,16.415C3.102,16.559 2.84,16.935 2.84,17.354C2.84,17.619 2.945,17.874 3.133,18.061L14.271,29.198C14.458,29.385 14.713,29.49 14.978,29.49C15.396,29.49 15.772,29.228 15.916,28.836L18.12,22.85C19.728,21.892 21.343,20.685 23.028,19C25.418,16.61 27.394,12.44 28.541,9.643L28.55,9.651C28.95,8.661 29.308,7.69 29.624,6.768C30.197,5.65 30.364,4.114 29.2,2.95" style="fill:url(#_Linear1);fill-rule:nonzero;"/><path d="M23.299,4.365C20.782,5.405 16.821,7.343 13.709,10.233C11.694,12.103 10.537,13.527 9.769,14.783C9,16.038 8.594,17.163 8.106,18.523L8.104,18.53C7.934,19.004 7.754,19.507 7.545,20.044L12.101,24.6C15.703,23.12 18.841,21.772 22.321,18.293C24.672,15.941 26.66,11.651 27.775,8.872L23.299,4.365Z" style="fill:rgb(244,244,244);fill-rule:nonzero;"/><g transform="matrix(1.36883,0,0,1.36883,-9.04659,-2.95062)"><path d="M24.528,11.25C24.528,13.033 23.061,14.5 21.278,14.5C19.495,14.5 18.028,13.033 18.028,11.25C18.028,9.467 19.495,8 21.278,8C23.061,8 24.528,9.467 24.528,11.25" style="fill:rgb(155,155,155);fill-rule:nonzero;"/></g><g transform="matrix(1.51598,0,0,1.51598,-12.1399,-4.6438)"><path d="M23.528,11.25C23.528,12.484 22.512,13.5 21.278,13.5C20.044,13.5 19.028,12.484 19.028,11.25C19.028,10.016 20.044,9 21.278,9C22.512,9 23.528,10.016 23.528,11.25" style="fill:url(#_Linear2);fill-rule:nonzero;"/></g><path d="M2.451,29.61C1.744,28.905 2.028,24 4.528,23C4.528,23 7.028,22 8.638,23.6C10.25,25.201 9.528,27 9.528,27C8.821,29.121 5.81,29.965 5.457,29.61C5.262,29.416 5.613,29.06 5.457,28.904C5.3,28.747 5.059,28.926 4.397,29.257C3.925,29.493 2.734,29.894 2.451,29.611" style="fill:rgb(255,124,0);fill-rule:nonzero;"/><path d="M6.088,21.06C6.369,20.779 6.751,20.62 7.149,20.62C7.547,20.62 7.929,20.779 8.21,21.06L11.745,24.596C12.026,24.877 12.185,25.259 12.185,25.657C12.185,26.48 11.507,27.157 10.685,27.157C10.287,27.157 9.905,26.999 9.624,26.718L6.088,23.182C5.506,22.6 5.506,21.643 6.088,21.061" style="fill:rgb(83,53,102);fill-rule:nonzero;"/><path d="M15.535,18.722C15.977,17.522 14.81,16.354 13.609,16.796L6.495,19.415C6.102,19.559 5.84,19.935 5.84,20.354C5.84,20.619 5.945,20.874 6.133,21.061L11.271,26.198C11.458,26.385 11.713,26.49 11.978,26.49C12.396,26.49 12.772,26.228 12.916,25.836L15.535,18.722Z" style="fill:rgb(26,115,204);fill-rule:nonzero;"/></g></g><g id="favicon.svg1" serif:id="favicon.svg"></g></g><defs><linearGradient id="_Linear1" x1="0" y1="0" x2="1" y2="0" gradientUnits="userSpaceOnUse" gradientTransform="matrix(27.2271,0,0,27.2271,2.83987,15.8219)"><stop offset="0" style="stop-color:rgb(255,0,230);stop-opacity:1"/><stop offset="1" style="stop-color:rgb(11,123,202);stop-opacity:1"/></linearGradient><linearGradient id="_Linear2" x1="0" y1="0" x2="1" y2="0" gradientUnits="userSpaceOnUse" gradientTransform="matrix(4.5,0,0,4.5,19.028,11.25)"><stop offset="0" style="stop-color:white;stop-opacity:1"/><stop offset="1" style="stop-color:rgb(0,148,255);stop-opacity:1"/></linearGradient></defs></svg>