<?xml version="1.0" encoding="UTF-8" standalone="no"?>
<!DOCTYPE svg PUBLIC "-//W3C//DTD SVG 1.1//EN" "http://www.w3.org/Graphics/SVG/1.1/DTD/svg11.dtd">
<svg width="100%" height="100%" viewBox="0 0 1080 1080" version="1.1" xmlns="http://www.w3.org/2000/svg" xmlns:xlink="http://www.w3.org/1999/xlink" xml:space="preserve" xmlns:serif="http://www.serif.com/" style="fill-rule:evenodd;clip-rule:evenodd;stroke-linejoin:round;stroke-miterlimit:2;">
    <g transform="matrix(1,0,0,1,4.38708,17.3871)">
        <circle cx="536.129" cy="523.355" r="441.29" style="fill:rgb(255,221,156);"/>
    </g>
    <g transform="matrix(9.81639,0,0,9.81639,-3780.52,-3411.63)">
        <path d="M417.911,385.206C418.199,385.254 418.295,384.966 418.511,384.894C418.679,384.894 418.895,384.894 418.943,384.75C419.039,384.342 419.111,383.886 419.039,383.478C419.015,383.382 419.015,383.358 419.087,383.286C419.159,382.662 419.159,382.062 419.231,381.438C419.351,380.502 419.519,379.71 419.639,378.918C419.759,378.198 419.903,377.55 420.023,376.878C420.095,375.99 420.311,375.222 420.407,374.718C420.503,374.886 420.503,375.27 420.527,375.294C420.551,375.606 420.647,375.942 420.815,376.686C420.935,377.118 421.103,377.55 421.175,377.958C421.343,378.606 421.559,379.158 421.823,379.734C421.847,379.854 421.943,379.974 422.039,380.022C422.327,380.574 422.711,380.982 423.143,381.222C423.383,381.27 423.551,381.27 423.767,381.318C423.959,381.342 424.127,381.27 424.343,381.174C424.679,380.982 424.871,380.718 425.087,380.358C425.447,379.734 425.807,379.038 426.143,378.414C426.455,377.838 426.743,377.286 427.007,376.734C427.271,376.23 427.511,375.798 427.703,375.39C427.871,374.886 428.087,374.502 428.303,374.07C428.375,373.974 428.519,373.806 428.471,374.262C428.471,374.382 428.471,374.814 428.423,375.294C428.399,376.23 428.399,377.118 428.399,378.03C428.399,378.486 428.471,378.966 428.399,379.422C428.567,379.566 428.423,379.71 428.423,379.854C428.471,380.646 428.567,381.462 428.591,382.23C428.615,382.47 428.687,382.662 428.687,382.854C428.615,383.046 428.687,383.286 428.687,383.478C428.711,383.67 428.759,383.886 428.759,384.174C428.903,384.606 429.167,384.87 429.527,385.062C429.623,385.014 429.695,384.894 429.839,384.894C429.911,384.942 429.911,385.182 430.031,385.206C430.127,385.254 430.199,385.206 430.295,385.158C430.415,385.014 430.487,384.894 430.607,384.75C430.583,384.534 430.583,384.342 430.607,384.078C430.487,383.886 430.535,383.742 430.487,383.454C430.439,383.046 430.439,382.662 430.415,382.326C430.319,381.582 430.247,380.982 430.295,380.262C430.247,379.494 430.247,378.726 430.247,378.006C430.247,377.406 430.247,376.83 430.295,376.278C430.319,375.702 430.247,375.174 430.415,374.67L430.415,374.382C430.439,373.926 430.439,373.446 430.439,372.99L430.583,371.766C430.607,371.43 430.607,371.142 430.583,370.83C430.583,370.23 430.319,369.966 429.815,369.894C429.695,369.894 429.599,370.086 429.383,369.966C429.119,370.038 428.903,370.086 428.687,370.35C428.519,370.566 428.231,370.902 428.111,371.262C427.967,371.43 427.871,371.646 427.751,371.79C427.391,372.246 427.223,372.798 426.887,373.254C426.671,373.662 426.455,374.07 426.263,374.502C426.167,374.718 425.999,374.982 425.879,375.174C425.783,375.39 425.591,375.606 425.543,375.87C425.255,376.398 424.967,376.95 424.679,377.526C424.391,378.102 424.127,378.63 423.767,379.206C423.647,379.302 423.647,379.446 423.527,379.35L423.383,379.302L422.711,377.094C422.471,376.23 422.255,375.414 422.111,374.598C422.063,374.262 422.039,373.926 421.943,373.566C421.775,373.494 421.919,373.374 421.919,373.278C421.847,372.798 421.703,372.366 421.655,371.862C421.655,371.382 421.535,370.974 421.319,370.542C421.055,370.422 420.911,370.062 420.455,370.086C420.023,370.23 419.759,370.254 419.399,370.686C419.207,371.478 418.919,372.366 418.799,373.206C418.679,373.806 418.535,374.31 418.487,374.886C418.343,375.462 418.223,376.014 418.151,376.518C418.295,376.734 418.079,376.998 418.031,377.19C418.007,377.694 417.887,378.246 417.791,378.822C417.623,379.83 417.431,381.03 417.335,382.23C417.287,383.046 417.071,384.006 417.479,384.606C417.503,384.654 417.503,384.75 417.527,384.798C417.623,384.966 417.815,384.966 417.911,385.206Z" style="fill:rgb(250,84,70);"/>
        <path d="M435.455,384.774C435.983,384.534 436.295,384.078 436.487,383.742C436.871,383.07 437.279,382.374 437.399,382.134C437.687,381.63 437.711,381.51 437.783,381.366L437.975,381.15C437.999,381.582 438.071,381.774 438.167,382.038C438.215,382.326 438.407,382.734 438.695,383.07C438.983,383.382 439.223,383.67 439.511,383.934C439.799,384.078 440.039,384.198 440.303,384.246C440.711,384.366 440.927,384.366 441.503,384.294C441.935,384.198 442.247,384.078 442.607,383.79C442.727,383.67 442.823,383.598 443.015,383.358C443.039,382.998 443.207,383.046 443.255,382.95C443.471,382.638 443.663,382.278 443.879,381.942C444.215,381.582 444.023,381.726 444.239,381.27C444.335,381.126 444.455,381.03 444.527,380.718C444.527,380.622 444.743,380.31 444.839,379.974C445.127,379.494 445.343,378.606 445.271,378.726C445.079,378.558 445.127,378.126 444.839,378.246L444.671,378.246C444.671,378.198 444.671,378.126 444.767,378.03C444.815,378.006 444.887,377.742 444.671,377.742C444.647,377.694 444.455,378.126 444.335,378.294C444.215,378.486 443.951,378.846 443.879,379.038C443.951,379.254 443.735,379.302 443.663,379.35C443.639,379.446 443.543,379.542 443.519,379.614C443.111,380.43 443.039,380.502 442.631,381.15C442.247,381.75 441.911,382.278 441.431,382.782C441.215,382.998 441.023,383.166 440.783,383.19C440.711,383.238 440.495,383.19 440.375,383.166C440.207,383.07 440.183,382.95 440.087,382.782C439.991,382.47 439.847,382.158 439.799,381.774C439.775,381.366 439.703,380.934 439.703,380.502C439.511,380.358 439.703,380.046 439.631,379.854C439.703,379.542 439.703,379.206 439.703,378.894C439.727,378.75 439.775,378.702 439.727,378.558C439.775,378.198 439.895,377.838 439.991,377.43C439.847,377.142 439.703,377.022 439.487,376.95C439.223,377.118 439.319,376.71 438.719,376.83L438.695,376.83C438.311,376.95 438.023,376.878 437.759,376.734C437.279,376.422 436.679,376.278 436.103,376.182C435.959,376.326 435.743,376.182 435.575,376.182C435.407,376.182 435.191,376.23 434.951,376.302C434.591,376.398 434.375,376.686 434.183,376.806C434.039,377.094 433.967,377.022 433.799,377.31C433.799,377.55 433.559,377.694 433.463,377.838C433.319,378.126 433.175,378.414 433.127,378.75C433.079,378.918 432.983,379.11 432.935,379.35C432.839,379.614 432.791,379.926 432.743,380.166C432.671,380.334 432.671,380.454 432.671,380.622C432.647,380.742 432.575,380.862 432.575,381.03C432.455,381.63 432.575,382.23 432.647,382.854C432.647,382.878 432.647,382.926 432.791,383.334C432.863,383.598 433.247,384.15 433.727,384.534C434.255,384.894 434.951,385.014 435.455,384.774ZM434.471,383.286C434.399,383.142 434.375,382.854 434.375,382.47L434.375,382.278C434.327,381.558 434.543,380.766 434.687,380.118C434.879,379.326 435.143,378.63 435.407,378.03C435.575,377.742 435.743,377.55 436.007,377.43C436.343,377.334 436.679,377.406 436.991,377.55C437.207,377.622 437.471,377.814 437.591,377.958C437.711,378.126 437.615,378.414 437.495,378.702C437.351,379.11 437.159,379.446 436.823,380.022C436.607,380.43 436.343,380.838 436.199,381.27C436.151,381.582 435.815,381.846 435.671,382.134C435.407,382.566 435.167,382.95 434.975,383.238C434.879,383.358 434.663,383.574 434.471,383.286Z" style="fill:rgb(250,84,70);"/>
        <path d="M446.303,384.798C446.399,384.798 446.519,384.87 446.591,384.798C446.807,384.774 447.095,384.75 447.239,384.582C447.623,384.246 448.007,383.958 448.247,383.526C448.487,383.142 448.703,382.734 448.895,382.326C449.111,381.87 449.303,381.462 449.447,381.03C449.495,380.862 449.543,380.862 449.567,380.838C449.615,380.934 449.615,381.174 449.639,381.222C449.711,381.63 449.831,382.038 449.927,382.374C450.143,382.926 450.359,383.454 450.647,383.79C451.031,384.246 451.343,384.462 451.655,384.582C452.135,384.774 452.567,384.894 453.143,384.798C453.575,384.75 453.887,384.606 454.175,384.246C454.295,384.15 454.391,383.958 454.583,383.862C454.871,383.598 454.799,383.526 454.895,383.454L455.495,382.446C455.783,382.038 455.807,381.726 456.071,381.27C456.167,381.126 456.167,380.982 456.071,380.862C455.975,380.766 455.783,380.838 455.807,380.646C455.951,380.502 455.975,380.91 456.071,380.742C456.095,380.718 456.095,380.646 456.095,380.574C456.095,380.55 456.095,380.502 456.191,380.502C456.263,380.622 456.263,380.742 456.407,380.718C456.407,380.622 456.623,380.31 456.671,379.974C456.959,379.494 457.175,378.606 457.103,378.726C456.911,378.558 456.959,378.126 456.671,378.246L456.503,378.246C456.503,378.198 456.503,378.126 456.599,378.03C456.623,378.006 456.695,377.742 456.503,377.742C456.479,377.694 456.263,378.126 456.167,378.294C456.023,378.486 455.783,378.846 455.687,379.038C455.783,379.254 455.543,379.302 455.495,379.35C455.471,379.446 455.375,379.542 455.351,379.614C454.943,380.43 454.607,380.934 454.199,381.582C453.863,382.182 453.479,382.734 452.999,383.238C452.783,383.454 452.591,383.598 452.351,383.646C452.135,383.478 452.039,383.334 451.943,383.166C451.775,382.878 451.751,382.446 451.655,382.134C451.655,381.87 451.583,381.726 451.463,381.51L451.463,381.054C451.367,380.43 451.343,379.83 451.343,379.254C451.343,378.822 451.343,378.342 451.367,377.958C451.223,378.006 451.367,377.598 451.439,377.406C451.439,376.95 451.463,376.518 451.559,376.086C451.583,375.414 451.631,375.126 451.727,374.694C451.751,374.454 451.847,373.974 451.847,373.878C451.847,373.662 451.871,373.446 451.943,373.206C451.991,372.918 452.039,372.678 452.063,372.39C452.159,371.862 452.183,371.358 452.279,370.974C452.375,370.254 452.327,369.774 451.775,369.534C451.343,369.342 450.935,369.486 450.551,369.774C450.431,370.038 450.359,370.182 450.359,370.374C450.335,370.662 450.311,370.95 450.263,371.094C450.335,371.358 450.167,371.43 450.167,371.502C450.143,371.838 450.047,372.15 450.047,372.51L450.047,372.702C449.975,373.086 449.927,373.494 449.855,373.854C449.831,374.214 449.759,374.526 449.711,374.862C449.615,375.39 449.567,375.942 449.423,376.47C449.207,376.422 449.159,376.422 449.111,376.398C448.535,376.182 447.887,375.99 447.287,375.942C447.239,375.942 447.191,375.942 447.119,375.894C446.687,375.87 446.279,375.942 445.799,376.134C445.703,376.23 445.535,376.326 445.415,376.47C445.175,376.734 444.983,376.998 444.887,377.238C444.791,377.334 444.671,377.55 444.575,377.742C444.575,377.886 444.527,378.006 444.503,378.102C444.215,378.534 444.119,379.038 444.071,379.566C443.999,379.902 443.999,380.214 443.999,380.55C443.999,380.91 443.975,381.27 444.071,381.63C444.095,382.062 444.119,382.518 444.287,382.926C444.407,383.382 444.671,383.79 445.007,384.198C445.391,384.654 445.823,384.774 446.303,384.798ZM446.303,383.526C446.111,383.358 446.015,383.07 445.943,382.782C445.871,382.374 445.799,381.99 445.799,381.558L445.799,380.862C445.799,380.166 445.943,379.542 446.135,378.894C446.327,378.294 446.687,377.838 447.023,377.526C447.191,377.406 447.335,377.31 447.527,377.286C448.007,377.19 448.487,377.286 448.895,377.598C448.967,377.622 449.015,377.718 449.039,377.742L449.111,377.91C449.039,378.15 448.967,378.318 448.895,378.534C448.751,378.894 448.631,379.302 448.487,379.71C448.319,380.142 448.127,380.622 447.887,381.054C447.551,381.726 447.191,382.374 446.831,382.95C446.687,383.19 446.543,383.382 446.303,383.526Z" style="fill:rgb(250,84,70);"/>
        <path d="M458.663,384.894C458.927,384.942 459.119,384.942 459.431,384.894C459.743,384.87 460.079,384.774 460.319,384.654C460.679,384.486 460.943,384.366 461.255,384.078C461.279,384.078 461.327,384.054 461.327,384.006C461.399,383.79 461.543,383.79 461.687,383.598C461.735,383.598 461.855,383.358 461.879,383.286C462.095,383.07 462.263,382.926 462.287,382.734C462.263,382.638 462.167,382.566 462.167,382.47C462.191,382.374 462.263,382.326 462.383,382.278C462.455,382.278 462.407,382.374 462.479,382.374C462.551,382.23 462.551,382.134 462.455,382.038C462.383,381.942 462.407,381.846 462.335,381.726C462.191,381.63 462.143,381.582 461.999,381.63C461.951,381.654 461.951,381.75 461.855,381.846C461.759,381.99 461.591,382.134 461.543,382.23C461.255,382.35 461.135,382.662 460.727,382.95C460.391,383.238 460.247,383.334 459.935,383.454C459.647,383.574 459.359,383.598 459.071,383.598C458.927,383.646 458.735,383.574 458.543,383.526C458.015,383.238 457.847,383.046 457.655,382.59C457.631,382.47 457.631,382.35 457.559,382.23C457.511,381.654 457.511,381.318 457.631,380.718C457.775,380.742 457.967,380.862 458.135,380.862C458.519,380.934 458.855,380.934 459.239,380.91C459.719,380.766 459.959,380.718 460.175,380.55C460.583,380.262 460.943,379.974 461.183,379.494C461.567,379.038 461.567,378.702 461.687,378.246C461.735,378.03 461.735,377.694 461.687,377.526C461.663,377.334 461.591,377.142 461.567,377.022C461.543,376.734 461.447,376.686 461.327,376.518C461.255,376.398 461.159,376.278 461.039,376.23C460.943,376.086 460.679,375.87 460.391,375.798C459.935,375.606 459.359,375.582 458.927,375.702C458.519,375.726 458.231,375.942 457.919,376.134C457.703,376.302 457.439,376.47 457.247,376.71C457.055,376.902 456.911,377.118 456.767,377.31C456.911,377.55 456.623,377.55 456.551,377.694C456.503,377.742 456.503,377.838 456.431,377.886C456.335,378.102 456.239,378.318 456.215,378.534C455.999,379.014 455.903,379.422 455.807,379.83C455.711,380.358 455.687,380.934 455.639,381.342C455.639,382.182 455.807,382.374 455.807,382.446C455.807,382.47 455.831,382.518 455.831,382.59C455.927,382.926 456.143,383.286 456.335,383.646C456.407,383.766 456.503,383.862 456.551,383.934C456.647,383.862 456.695,383.958 456.815,384.15C456.959,384.246 457.223,384.462 457.415,384.534C457.631,384.654 457.775,384.75 457.967,384.75C458.303,384.87 458.447,384.87 458.663,384.894ZM457.775,379.854C457.967,379.11 458.159,378.414 458.543,377.742C458.783,377.334 459.071,376.95 459.431,376.806C459.647,376.71 459.791,376.71 459.935,376.734C460.175,376.878 460.247,377.094 460.175,377.478C460.127,377.742 459.983,378.246 459.743,378.63C459.719,378.726 459.791,378.918 459.575,378.894C459.551,378.918 459.431,379.134 459.359,379.158C459.023,379.494 458.831,379.71 458.351,379.854C458.159,379.902 458.063,379.926 457.775,379.854ZM462.167,381.582C462.383,381.582 462.383,381.582 462.479,381.318C462.479,381.27 462.455,381.27 462.383,381.27C462.335,381.342 462.167,381.462 462.167,381.582Z" style="fill:rgb(250,84,70);"/>
    </g>
    <g transform="matrix(7.61445,0,0,7.61445,-2798.62,-2557.18)">
        <g transform="matrix(1,0,0,1,12.2245,-1.83367)">
            <path d="M418.199,409.35C418.535,409.398 418.943,409.35 419.303,409.35C419.687,409.374 420.095,409.35 420.551,409.254C421.175,409.254 421.751,409.014 422.327,408.942C422.471,408.894 422.567,408.654 422.783,408.774C423.431,408.534 424.055,408.198 424.583,407.79C424.991,407.526 425.255,407.166 425.567,406.782C425.807,406.566 425.879,406.23 425.975,405.87C426.071,405.366 425.975,404.862 425.663,404.43C425.279,403.926 424.943,403.638 424.487,403.446C423.863,403.11 423.263,402.894 422.567,402.702C422.327,402.558 421.655,402.438 421.319,402.342C421.511,402.198 421.631,402.15 421.919,402.006C422.111,401.838 422.375,401.742 422.783,401.406C423.143,401.118 423.839,400.59 424.391,400.014C424.871,399.606 425.255,399.294 425.567,398.934C425.591,398.886 425.663,398.814 425.735,398.79C426.095,398.31 426.407,397.926 426.671,397.446C426.791,397.206 426.863,396.966 426.959,396.654L426.959,396.246C426.959,395.862 426.863,395.574 426.671,395.238C426.263,394.686 425.735,394.374 425.135,394.134C424.679,393.966 424.199,393.966 423.791,393.966C423.431,393.966 423.047,394.038 422.567,394.086C422.039,394.086 421.823,394.47 421.535,394.374C420.935,394.542 420.503,394.782 419.927,395.07C419.495,395.262 418.919,395.502 418.511,395.79C418.439,395.862 418.343,395.958 418.295,395.982C418.007,396.078 417.743,396.366 417.503,396.51C417.215,396.654 417.095,396.798 416.927,396.99C416.807,397.518 417.095,397.806 417.431,397.926C417.671,397.998 417.935,397.974 418.295,397.854C418.391,397.782 418.487,397.782 418.535,397.71C418.679,397.686 418.799,397.662 418.919,397.59C418.895,397.806 418.823,397.926 418.823,398.094C418.799,398.166 418.799,398.31 418.751,398.502C418.727,399.078 418.679,399.678 418.535,400.278C418.799,400.422 418.511,400.59 418.487,400.734C418.487,401.094 418.391,401.478 418.391,401.814C418.343,402.318 418.295,402.726 418.223,403.206C418.199,404.046 418.103,404.862 418.103,405.654C418.079,405.99 418.079,406.326 418.103,406.638C418.079,406.926 418.031,407.238 418.079,407.526L418.079,407.886C417.911,407.958 417.743,407.934 417.623,408.006C417.335,408.246 417.335,408.462 417.335,408.606C417.431,409.014 417.503,409.158 417.527,409.206C417.887,409.302 418.079,409.35 418.199,409.35ZM420.359,401.118C420.359,401.094 420.335,401.022 420.359,400.83C420.455,400.086 420.551,399.294 420.623,398.574C420.623,398.406 420.623,398.286 420.647,398.214C420.767,397.806 420.743,397.398 420.911,396.99C420.839,396.798 420.935,396.654 421.055,396.438C421.463,396.198 422.255,395.838 422.759,395.694C423.143,395.502 423.551,395.478 423.983,395.358C424.271,395.262 424.583,395.262 424.775,395.262C424.871,395.262 424.967,395.286 425.063,395.358C425.207,395.502 425.255,395.766 425.135,396.054C425.087,396.15 424.991,396.294 424.967,396.39C424.775,396.798 424.487,397.206 424.151,397.662C423.863,397.974 423.575,398.31 423.335,398.67C423.119,398.79 422.951,398.982 422.759,399.222C422.663,399.294 422.663,399.318 422.663,399.462C422.471,399.51 422.327,399.582 422.231,399.726L422.183,399.798C421.751,400.134 421.103,400.614 420.743,400.878L420.359,401.118ZM419.639,407.79C419.639,407.766 419.615,407.646 419.639,407.526C419.639,407.19 419.687,406.878 419.687,406.638C419.735,406.374 419.735,406.182 419.735,405.918C419.759,405.846 419.759,405.774 419.759,405.726C419.759,405.462 419.807,405.174 419.807,404.934C419.831,404.574 419.831,404.262 419.903,403.926C419.903,403.758 419.903,403.494 420.023,403.326C420.311,403.326 420.959,403.422 421.175,403.446C421.703,403.542 422.255,403.614 422.783,403.854C422.855,403.902 422.951,403.902 423.071,403.926C423.359,404.046 423.647,404.166 423.863,404.334C423.959,404.43 424.055,404.502 424.127,404.55C424.199,404.622 424.271,404.646 424.343,404.862C424.487,405.222 424.247,405.558 424.055,405.87C423.791,406.158 423.575,406.374 423.263,406.638C423.119,406.758 422.951,406.782 422.855,406.926C422.519,407.07 422.039,407.334 421.535,407.454C421.055,407.598 420.239,407.766 419.639,407.79Z" style="fill:rgb(0,181,193);"/>
        </g>
        <g transform="matrix(1,0,0,1,12.2245,-1.83367)">
            <path d="M432.407,415.638C432.911,415.542 433.415,415.422 433.895,415.134C434.015,415.062 434.135,414.99 434.399,414.798C434.783,414.414 435.143,413.814 435.407,413.094C435.599,412.614 435.695,412.038 435.719,411.51C435.791,411.174 435.791,410.766 435.839,410.31C435.887,409.902 435.887,409.686 435.887,409.302C435.911,408.966 435.887,408.654 435.887,408.342C435.887,407.958 435.839,407.598 435.839,407.238L435.839,406.59C435.695,406.518 435.791,406.278 435.791,406.134C435.791,405.87 435.743,405.582 435.743,405.342C435.719,405.054 435.719,404.766 435.695,404.502C435.695,404.214 435.623,403.902 435.623,403.614C435.599,403.326 435.599,403.11 435.599,402.822C435.335,402.726 435.599,402.606 435.551,402.486C435.599,402.102 435.551,401.622 435.551,401.19C435.551,400.878 435.503,400.614 435.431,400.326C435.287,400.086 435.119,399.942 434.783,399.894C434.591,400.302 434.423,399.894 434.279,399.942C434.111,399.99 433.895,400.11 433.823,400.422C433.679,400.902 433.535,401.238 433.319,401.718C433.199,402.102 433.127,402.486 432.911,402.846C432.767,403.206 432.671,403.542 432.479,403.902C432.263,404.334 432.047,404.742 431.807,405.15C431.591,405.462 431.375,405.846 431.159,406.182L431.039,406.35L430.583,406.95L430.175,407.382C430.103,407.478 430.031,407.526 429.887,407.478C429.743,407.238 429.695,407.07 429.671,406.734C429.647,406.35 429.647,406.038 429.647,405.654C429.647,405.366 429.671,405.15 429.671,404.862C429.695,404.454 429.743,404.046 429.791,403.638C429.839,403.326 429.887,402.966 429.959,402.63C430.031,402.318 430.079,402.006 430.103,401.694C430.151,401.334 430.247,401.022 430.295,400.734L430.295,400.614C430.247,400.398 430.103,400.23 429.863,400.086L429.551,399.99L429.359,400.014C429.023,400.086 428.831,400.182 428.639,400.422C428.543,400.59 428.423,400.806 428.375,401.094C428.231,401.43 428.159,401.718 428.087,402.03C428.015,402.342 427.943,402.846 427.871,403.206C427.847,403.734 427.823,404.142 427.775,404.334L427.775,405.222C427.823,405.63 427.847,405.918 427.847,406.134L427.871,406.182C427.943,406.566 428.063,406.878 428.159,407.19C428.279,407.382 428.423,407.646 428.567,407.862C428.687,408.054 428.879,408.246 429.071,408.39C429.263,408.582 429.503,408.678 429.743,408.774C430.175,408.942 430.583,408.87 430.967,408.606C431.303,408.39 431.567,408.174 431.855,407.79C431.999,407.598 432.119,407.358 432.287,407.166C432.575,406.854 432.767,406.374 433.007,405.99C433.127,405.726 433.271,405.462 433.391,405.174C433.487,404.934 433.607,404.718 433.727,404.454C433.775,404.358 433.871,404.166 433.919,404.118C433.991,404.43 433.991,404.742 434.015,404.982C434.015,405.318 434.063,405.654 434.063,405.99C434.063,406.35 434.111,406.662 434.111,407.142C434.135,407.334 434.111,407.574 434.135,407.742L434.135,407.862L434.183,408.39C434.183,408.534 434.135,408.654 434.183,408.774C434.183,408.966 434.183,409.182 434.135,409.35C434.111,409.542 434.135,409.686 434.135,409.878C434.063,410.214 434.063,410.502 434.015,410.694C433.919,410.982 433.919,411.078 433.919,411.102C433.871,411.558 433.895,411.894 433.775,412.11C433.703,412.374 433.583,412.638 433.487,412.926L433.535,413.118C433.463,413.214 433.295,413.118 433.295,413.286C433.175,413.574 432.767,413.91 432.479,414.198C432.287,414.246 432.119,414.414 431.999,414.342C431.759,414.438 431.711,414.438 431.663,414.438C431.567,414.438 431.399,414.51 431.303,414.51L431.159,414.51C430.895,414.51 430.703,414.438 430.463,414.39L430.079,414.222C429.743,414.054 429.551,414.054 429.239,413.814C429.023,413.694 428.855,413.622 428.687,413.502C428.543,413.622 428.447,413.502 428.279,413.526C428.159,413.574 428.063,413.622 427.943,413.79L427.967,414.006C428.135,414.222 428.279,414.414 428.447,414.534C428.639,414.63 428.735,414.726 428.855,414.822C429.071,414.918 429.287,415.014 429.455,415.11C429.863,415.302 429.983,415.302 430.271,415.422L430.655,415.542L430.967,415.59C431.519,415.71 431.855,415.662 432.407,415.638Z" style="fill:rgb(0,181,193);"/>
        </g>
    </g>
    <g transform="matrix(13.9125,0,0,13.9125,-5555.23,-5157.21)">
        <g transform="matrix(1,0,0,1,6.11223,-1.93554)">
            <path d="M419.399,433.494C419.495,433.47 419.543,433.374 419.615,433.302C419.639,433.206 419.759,433.182 419.807,433.062C419.759,432.678 419.759,432.342 419.735,431.934C419.639,431.238 419.735,430.59 419.735,429.918C419.735,429.27 419.807,428.622 419.903,427.926C420.023,427.83 420.119,427.83 420.239,427.83C420.743,427.758 421.175,427.758 421.559,427.71L422.255,427.71C422.975,427.734 423.671,427.638 424.487,427.638C424.727,427.71 424.991,427.566 425.255,427.638C425.351,427.71 425.351,427.758 425.351,427.854C425.351,428.766 425.207,429.582 425.375,430.47L425.375,430.566C425.351,431.286 425.447,432.054 425.543,432.534C425.567,432.75 425.567,432.798 425.591,432.87C425.663,432.894 425.783,432.894 425.879,432.942C425.975,433.158 426.095,433.302 426.359,433.374L426.575,433.254C426.695,433.302 426.815,433.47 427.007,433.374C427.151,433.302 427.223,433.182 427.295,433.062C427.391,432.942 427.367,432.798 427.295,432.678C427.271,432.15 427.175,431.574 427.175,430.95C427.175,430.158 427.151,429.222 427.175,428.334C427.175,427.974 427.223,427.566 427.175,427.134C427.175,426.822 427.223,426.486 427.271,426.102C427.223,426.006 427.271,425.91 427.295,425.814C427.367,425.55 427.367,425.31 427.391,425.022C427.415,424.686 427.415,424.23 427.511,423.822C427.583,423.078 427.607,422.31 427.799,421.59C427.823,421.062 427.967,420.558 427.991,419.958C427.991,419.91 427.991,419.862 428.015,419.838C428.087,419.574 428.087,419.358 428.111,419.07C428.183,418.566 427.871,418.086 427.415,418.086C427.295,418.086 427.175,418.35 427.079,418.134C426.791,418.182 426.551,418.254 426.287,418.494C426.287,418.566 426.263,418.662 426.263,418.782L426.071,419.982C425.999,420.39 425.951,420.798 425.855,421.374C425.735,422.166 425.687,423.102 425.567,424.014L425.567,424.182C425.567,424.614 425.543,425.19 425.495,425.694C425.447,425.742 425.447,425.91 425.399,426.006C425.207,426.03 425.063,426.102 424.775,426.03C424.559,426.102 424.247,426.102 423.935,426.126C423.839,426.15 423.719,426.15 423.647,426.15C423.359,426.15 422.927,426.15 422.543,426.198C421.751,426.198 421.103,426.246 420.335,426.294L420.023,426.294C420.023,426.006 420.047,425.838 420.047,425.718C420.095,424.998 420.167,424.014 420.311,423.294C420.359,422.982 420.359,422.718 420.455,422.382C420.455,422.166 420.335,421.854 420.527,421.806C420.551,421.494 420.623,421.158 420.647,420.87C420.695,420.486 420.815,419.982 420.911,419.55C420.959,419.262 420.959,419.07 420.911,418.902C420.815,418.686 420.623,418.566 420.407,418.47C419.927,418.35 419.543,418.35 419.159,418.638C419.039,418.782 419.039,418.902 418.943,419.07C418.919,419.19 418.919,419.358 418.895,419.502C418.895,419.67 418.823,419.862 418.799,420.078C418.727,420.678 418.535,421.206 418.511,421.782C418.343,423.174 418.223,424.686 418.103,426.102C418.079,426.15 418.103,426.318 418.031,426.438C417.671,426.558 417.383,426.534 417.071,426.558C416.927,426.702 416.903,426.75 416.903,426.894C416.927,427.206 417.095,427.494 417.311,427.758C417.431,427.83 417.503,427.902 417.599,427.926C417.671,428.022 417.815,428.046 417.935,428.046L417.935,429.15C417.911,429.438 417.911,429.774 417.911,430.134C417.911,430.518 417.935,430.878 417.911,431.334C417.911,431.79 417.935,432.342 418.079,432.774C418.223,432.798 418.343,432.942 418.487,433.014L418.751,433.35C419.087,433.59 419.207,433.374 419.399,433.494Z" style="fill:rgb(78,181,29);"/>
        </g>
        <g transform="matrix(1,0,0,1,6.11223,-1.93554)">
            <path d="M432.431,432.774C432.959,432.534 433.271,432.078 433.463,431.742C433.847,431.07 434.255,430.374 434.375,430.134C434.663,429.63 434.687,429.51 434.759,429.366L434.951,429.15C434.975,429.582 435.047,429.774 435.143,430.038C435.191,430.326 435.383,430.734 435.671,431.07C435.959,431.382 436.199,431.67 436.487,431.934C436.775,432.078 437.015,432.198 437.279,432.246C437.687,432.366 437.903,432.366 438.479,432.294C438.911,432.198 439.223,432.078 439.583,431.79C439.703,431.67 439.799,431.598 439.991,431.358C440.015,430.998 440.183,431.046 440.231,430.95C440.447,430.638 440.639,430.278 440.855,429.942C441.191,429.582 440.999,429.726 441.215,429.27C441.311,429.126 441.431,429.03 441.503,428.718C441.503,428.622 441.719,428.31 441.815,427.974C442.103,427.494 442.319,426.606 442.247,426.726C442.055,426.558 442.103,426.126 441.815,426.246L441.647,426.246C441.647,426.198 441.647,426.126 441.743,426.03C441.791,426.006 441.863,425.742 441.647,425.742C441.623,425.694 441.431,426.126 441.311,426.294C441.191,426.486 440.927,426.846 440.855,427.038C440.927,427.254 440.711,427.302 440.639,427.35C440.615,427.446 440.519,427.542 440.495,427.614C440.087,428.43 440.015,428.502 439.607,429.15C439.223,429.75 438.887,430.278 438.407,430.782C438.191,430.998 437.999,431.166 437.759,431.19C437.687,431.238 437.471,431.19 437.351,431.166C437.183,431.07 437.159,430.95 437.063,430.782C436.967,430.47 436.823,430.158 436.775,429.774C436.751,429.366 436.679,428.934 436.679,428.502C436.487,428.358 436.679,428.046 436.607,427.854C436.679,427.542 436.679,427.206 436.679,426.894C436.703,426.75 436.751,426.702 436.703,426.558C436.751,426.198 436.871,425.838 436.967,425.43C436.823,425.142 436.679,425.022 436.463,424.95C436.199,425.118 436.295,424.71 435.695,424.83L435.671,424.83C435.287,424.95 434.999,424.878 434.735,424.734C434.255,424.422 433.655,424.278 433.079,424.182C432.935,424.326 432.719,424.182 432.551,424.182C432.383,424.182 432.167,424.23 431.927,424.302C431.567,424.398 431.351,424.686 431.159,424.806C431.015,425.094 430.943,425.022 430.775,425.31C430.775,425.55 430.535,425.694 430.439,425.838C430.295,426.126 430.151,426.414 430.103,426.75C430.055,426.918 429.959,427.11 429.911,427.35C429.815,427.614 429.767,427.926 429.719,428.166C429.647,428.334 429.647,428.454 429.647,428.622C429.623,428.742 429.551,428.862 429.551,429.03C429.431,429.63 429.551,430.23 429.623,430.854C429.623,430.878 429.623,430.926 429.767,431.334C429.839,431.598 430.223,432.15 430.703,432.534C431.231,432.894 431.927,433.014 432.431,432.774ZM431.447,431.286C431.375,431.142 431.351,430.854 431.351,430.47L431.351,430.278C431.303,429.558 431.519,428.766 431.663,428.118C431.855,427.326 432.119,426.63 432.383,426.03C432.551,425.742 432.719,425.55 432.983,425.43C433.319,425.334 433.655,425.406 433.967,425.55C434.183,425.622 434.447,425.814 434.567,425.958C434.687,426.126 434.591,426.414 434.471,426.702C434.327,427.11 434.135,427.446 433.799,428.022C433.583,428.43 433.319,428.838 433.175,429.27C433.127,429.582 432.791,429.846 432.647,430.134C432.383,430.566 432.143,430.95 431.951,431.238C431.855,431.358 431.639,431.574 431.447,431.286Z" style="fill:rgb(78,181,29);"/>
        </g>
        <g transform="matrix(1,0,0,1,6.11223,-1.93554)">
            <path d="M443.975,432.654C444.287,432.606 444.671,432.486 444.935,432.246C445.463,431.886 445.871,431.454 446.183,430.926C446.423,430.518 446.591,430.062 446.711,429.726C446.831,429.462 446.879,429.27 446.879,429.03C446.999,428.646 447.095,428.262 447.095,427.854C447.119,427.542 447.095,427.302 447.095,427.014C447.119,426.534 446.951,426.126 446.831,425.718C446.735,425.526 446.615,425.334 446.543,425.238C446.423,425.094 446.303,424.95 446.135,424.806C445.943,424.614 445.799,424.542 445.535,424.518C445.319,424.422 445.127,424.422 444.935,424.422C444.719,424.422 444.599,424.47 444.503,424.542C444.287,424.326 444.119,424.278 443.807,424.278C443.663,424.23 443.375,424.278 443.063,424.398C442.775,424.518 442.391,424.71 442.295,424.878C441.863,425.286 441.647,425.694 441.479,426.102C441.263,426.558 441.143,427.014 441.071,427.494C440.951,427.974 440.903,428.502 440.855,428.982C440.855,429.51 440.903,429.99 440.975,430.47C441.143,431.238 441.479,431.886 442.103,432.246C442.247,432.342 442.367,432.39 442.559,432.486C442.655,432.534 442.775,432.486 442.847,432.534C443.207,432.75 443.591,432.678 443.975,432.654ZM443.519,431.598C443.375,431.598 443.207,431.526 443.063,431.286C442.871,430.95 442.799,430.662 442.775,430.35C442.679,429.726 442.703,429.126 442.799,428.502C442.871,427.926 442.991,427.35 443.207,426.726C443.375,426.246 443.663,425.718 443.879,425.478C443.975,425.406 444.119,425.31 444.311,425.238C444.575,425.19 444.671,425.286 444.815,425.406C444.983,425.526 445.007,425.694 445.127,425.838C445.319,426.342 445.319,426.846 445.319,427.422C445.295,427.974 445.223,428.502 445.127,429.03C445.103,429.438 444.983,429.774 444.791,430.134C444.695,430.374 444.575,430.59 444.383,430.878C444.119,431.166 443.975,431.454 443.519,431.598Z" style="fill:rgb(78,181,29);"/>
        </g>
    </g>
</svg>
